<svg data-v-0dd9719b="" version="1.0" xmlns="http://www.w3.org/2000/svg" xmlns:xlink="http://www.w3.org/1999/xlink" width="100%" height="100%" viewBox="0 0 340.000000 100.000000" preserveAspectRatio="xMidYMid meet" color-interpolation-filters="sRGB" style="margin: auto;">
  <rect data-v-0dd9719b="" x="0" y="0" width="100%" height="100%" fill="#fcf3ee" fill-opacity="1" class="background"></rect>
  <rect data-v-0dd9719b="" x="0" y="0" width="100%" height="100%" fill="url(#watermark)" fill-opacity="1" class="watermarklayer"></rect>
  <g data-v-0dd9719b="" fill="#6c4b53" class="basesvg" transform="translate(60.62999725341797,27.60000038146973)">
    <g data-gra="path-name" fill-rule="" class="tp-name">
      <g transform="scale(1)">
        <g>
          <path d="M11.38-5.39L11.38-5.39 11.38-9.85Q11.38-10.84 11.05-11.14 10.72-11.44 9.73-11.44L9.73-11.44 6.93-11.44Q1.81-11.44 1.81-16.28L1.81-16.28 1.81-21.95Q1.81-26.84 6.93-26.84L6.93-26.84 10.95-26.84Q16.11-26.84 16.11-21.95L16.11-21.95 16.11-19.36 11.28-19.36 11.28-21.45Q11.28-22.44 10.95-22.74 10.62-23.05 9.63-23.05L9.63-23.05 8.3-23.05Q7.32-23.05 6.99-22.74 6.66-22.44 6.66-21.45L6.66-21.45 6.66-16.83Q6.66-15.84 6.99-15.54 7.32-15.23 8.3-15.23L8.3-15.23 11.17-15.23Q16.23-15.23 16.23-10.34L16.23-10.34 16.23-4.84Q16.23 0 11.11 0L11.11 0 7.04 0Q1.93 0 1.93-4.84L1.93-4.84 1.93-7.48 6.76-7.48 6.76-5.39Q6.76-4.4 7.09-4.1 7.42-3.79 8.42-3.79L8.42-3.79 9.73-3.79Q10.72-3.79 11.05-4.1 11.38-4.4 11.38-5.39ZM25.46-26.84L25.46-26.84 30.85-26.84Q36.02-26.84 36.02-21.95L36.02-21.95 36.02-11.88 25.19-11.88 25.19-5.5Q25.19-4.57 25.52-4.24 25.85-3.9 26.84-3.9L26.84-3.9 29.37-3.9Q30.36-3.9 30.69-4.24 31.02-4.57 31.02-5.55L31.02-5.55 31.02-7.75 35.86-7.75 35.86-4.84Q35.86 0 30.74 0L30.74 0 25.46 0Q20.35 0 20.35-4.84L20.35-4.84 20.35-21.95Q20.35-26.84 25.46-26.84ZM25.19-21.34L25.19-15.51 31.13-15.51 31.13-21.34Q31.13-22.27 30.83-22.61 30.52-22.93 29.53-22.93L29.53-22.93 26.84-22.93Q25.85-22.93 25.52-22.61 25.19-22.27 25.19-21.34L25.19-21.34ZM55.44-21.95L55.44-18.37 50.55-18.37 50.55-21.23Q50.55-22.22 50.22-22.52 49.89-22.82 48.9-22.82L48.9-22.82 46.53-22.82Q45.54-22.82 45.21-22.52 44.88-22.22 44.88-21.23L44.88-21.23 44.88-5.61Q44.88-4.62 45.21-4.32 45.54-4.01 46.53-4.01L46.53-4.01 48.9-4.01Q49.89-4.01 50.22-4.32 50.55-4.62 50.55-5.61L50.55-5.61 50.55-8.47 55.44-8.47 55.44-4.84Q55.44 0 50.27 0L50.27 0 45.05 0Q39.93 0 39.93-4.84L39.93-4.84 39.93-21.95Q39.93-26.84 45.05-26.84L45.05-26.84 50.27-26.84Q55.44-26.84 55.44-21.95L55.44-21.95ZM64.35-26.84L64.35-26.84 70.23-26.84Q75.35-26.84 75.35-21.95L75.35-21.95 75.35-4.84Q75.35 0 70.23 0L70.23 0 64.35 0Q59.29 0 59.29-4.84L59.29-4.84 59.29-21.95Q59.29-26.84 64.35-26.84ZM70.45-5.55L70.45-5.55 70.45-21.29Q70.45-22.27 70.13-22.61 69.8-22.93 68.81-22.93L68.81-22.93 65.78-22.93Q64.79-22.93 64.49-22.61 64.19-22.27 64.19-21.29L64.19-21.29 64.19-5.55Q64.19-4.57 64.49-4.24 64.79-3.9 65.78-3.9L65.78-3.9 68.81-3.9Q69.8-3.9 70.13-4.24 70.45-4.57 70.45-5.55ZM88.28-26.84L88.28-26.84 90.2-26.84Q95.21-26.84 95.21-21.95L95.21-21.95 95.21 0 90.26 0 90.26-21.23Q90.26-22.22 89.93-22.52 89.59-22.82 88.61-22.82L88.61-22.82 86.68-22.82Q85.69-22.82 85.28-22.39 84.87-21.95 84.87-20.9L84.87-20.9 84.87 0 79.92 0 79.92-26.84 84.87-26.84 84.87-24.7Q85.58-26.84 88.28-26.84ZM110-24.75L110-36.8 114.95-36.8 114.95 0 110 0 110-2.15Q109.29 0 106.59 0L106.59 0 104.61 0Q99.66 0 99.66-4.84L99.66-4.84 99.66-22Q99.66-26.89 104.61-26.89L104.61-26.89 106.59-26.89Q109.29-26.89 110-24.75L110-24.75ZM106.26-4.01L106.26-4.01 108.19-4.01Q109.18-4.01 109.59-4.46 110-4.9 110-5.94L110-5.94 110-20.96Q110-22 109.59-22.44 109.18-22.88 108.19-22.88L108.19-22.88 106.26-22.88Q105.27-22.88 104.94-22.55 104.61-22.22 104.61-21.29L104.61-21.29 104.61-5.61Q104.61-4.62 104.94-4.32 105.27-4.01 106.26-4.01ZM132-14.24L120.01-14.24 120.01-18.09 132-18.09 132-14.24ZM141.9-26.84L141.9-26.84 147.78-26.84Q152.9-26.84 152.9-21.95L152.9-21.95 152.9-4.84Q152.9 0 147.78 0L147.78 0 141.9 0Q136.84 0 136.84-4.84L136.84-4.84 136.84-21.95Q136.84-26.84 141.9-26.84ZM148-5.55L148-5.55 148-21.29Q148-22.27 147.67-22.61 147.34-22.93 146.35-22.93L146.35-22.93 143.33-22.93Q142.34-22.93 142.04-22.61 141.73-22.27 141.73-21.29L141.73-21.29 141.73-5.55Q141.73-4.57 142.04-4.24 142.34-3.9 143.33-3.9L143.33-3.9 146.35-3.9Q147.34-3.9 147.67-4.24 148-4.57 148-5.55ZM166.76-26.89L166.76-26.89 167.86-26.89 167.86-22.61 165.88-22.61Q162.41-22.61 162.41-18.54L162.41-18.54 162.41 0 157.46 0 157.46-26.84 162.41-26.84 162.41-23.54Q162.85-24.97 163.98-25.93 165.11-26.89 166.76-26.89ZM180.56-24.75L180.56-36.8 185.51-36.8 185.51 0 180.56 0 180.56-2.15Q179.85 0 177.16 0L177.16 0 175.17 0Q170.22 0 170.22-4.84L170.22-4.84 170.22-22Q170.22-26.89 175.17-26.89L175.17-26.89 177.16-26.89Q179.85-26.89 180.56-24.75L180.56-24.75ZM176.82-4.01L176.82-4.01 178.75-4.01Q179.74-4.01 180.15-4.46 180.56-4.9 180.56-5.94L180.56-5.94 180.56-20.96Q180.56-22 180.15-22.44 179.74-22.88 178.75-22.88L178.75-22.88 176.82-22.88Q175.83-22.88 175.5-22.55 175.17-22.22 175.17-21.29L175.17-21.29 175.17-5.61Q175.17-4.62 175.5-4.32 175.83-4.01 176.82-4.01ZM195.36-26.84L195.36-26.84 200.75-26.84Q205.92-26.84 205.92-21.95L205.92-21.95 205.92-11.88 195.09-11.88 195.09-5.5Q195.09-4.57 195.41-4.24 195.75-3.9 196.74-3.9L196.74-3.9 199.27-3.9Q200.25-3.9 200.59-4.24 200.91-4.57 200.91-5.55L200.91-5.55 200.91-7.75 205.75-7.75 205.75-4.84Q205.75 0 200.64 0L200.64 0 195.36 0Q190.25 0 190.25-4.84L190.25-4.84 190.25-21.95Q190.25-26.84 195.36-26.84ZM195.09-21.34L195.09-15.51 201.03-15.51 201.03-21.34Q201.03-22.27 200.72-22.61 200.42-22.93 199.43-22.93L199.43-22.93 196.74-22.93Q195.75-22.93 195.41-22.61 195.09-22.27 195.09-21.34L195.09-21.34ZM219.45-26.89L219.45-26.89 220.55-26.89 220.55-22.61 218.57-22.61Q215.11-22.61 215.11-18.54L215.11-18.54 215.11 0 210.16 0 210.16-26.84 215.11-26.84 215.11-23.54Q215.55-24.97 216.67-25.93 217.8-26.89 219.45-26.89Z" transform="translate(-1.809999942779541, 36.79999923706055)"></path>
        </g> 
      </g>
    </g>
  </g>
  <defs v-gra="od"></defs>
</svg>
